<?xml version="1.0" standalone="no"?>
<!DOCTYPE svg PUBLIC "-//W3C//DTD SVG 20010904//EN"
 "http://www.w3.org/TR/2001/REC-SVG-20010904/DTD/svg10.dtd">
<svg version="1.0" xmlns="http://www.w3.org/2000/svg"
 width="560.000000pt" height="560.000000pt" viewBox="0 0 560.000000 560.000000"
 preserveAspectRatio="xMidYMid meet">
<metadata>
Created by potrace 1.14, written by Peter Selinger 2001-2017
</metadata>
<g transform="translate(0.000000,560.000000) scale(0.100000,-0.100000)"
fill="#000000" stroke="none">
<path d="M0 2800 l0 -2800 2800 0 2800 0 0 2800 0 2800 -2800 0 -2800 0 0
-2800z m3370 -100 c1018 -1221 1844 -2220 1838 -2220 -7 0 -247 9 -533 20
-464 18 -522 22 -537 38 -10 9 -838 994 -1841 2187 -1234 1469 -1818 2171
-1807 2173 16 3 655 17 897 20 l133 2 1850 -2220z m1296 1801 l290 -6 -426
-483 c-235 -266 -437 -494 -451 -507 l-24 -25 -225 40 c-124 22 -237 42 -252
46 -21 4 -46 31 -103 114 -47 68 -75 118 -75 135 0 19 62 106 227 318 124 161
242 311 260 335 l34 42 227 -1 c125 -1 358 -5 518 -8z m-2542 -2606 l256 -305
-310 -365 c-171 -200 -315 -367 -320 -370 -14 -8 -983 44 -993 54 -9 9 1086
1291 1103 1291 4 0 123 -137 264 -305z"/>
</g>
</svg>
