<svg width="16" height="16" viewBox="0 0 16 16" fill="none" xmlns="http://www.w3.org/2000/svg">
<path d="M7.33337 7.3196C7.33337 6.9514 7.63184 6.65292 8.00004 6.65292C8.36824 6.65292 8.66671 6.9514 8.66671 7.3196V11.3196C8.66671 11.6878 8.36824 11.9863 8.00004 11.9863C7.63184 11.9863 7.33337 11.6878 7.33337 11.3196V7.3196Z" fill="#1752FE"/>
<path d="M8.00004 4.0341C7.63184 4.0341 7.33337 4.33258 7.33337 4.70077C7.33337 5.06896 7.63184 5.36744 8.00004 5.36744C8.36824 5.36744 8.66671 5.06896 8.66671 4.70077C8.66671 4.33258 8.36824 4.0341 8.00004 4.0341Z" fill="#1752FE"/>
<path fill-rule="evenodd" clip-rule="evenodd" d="M8.00004 1.33334C4.31814 1.33334 1.33337 4.3181 1.33337 8C1.33337 11.6819 4.31814 14.6667 8.00004 14.6667C11.6819 14.6667 14.6667 11.6819 14.6667 8C14.6667 4.3181 11.6819 1.33334 8.00004 1.33334ZM2.66671 8C2.66671 10.9455 5.05452 13.3333 8.00004 13.3333C10.9456 13.3333 13.3334 10.9455 13.3334 8C13.3334 5.05448 10.9456 2.66667 8.00004 2.66667C5.05452 2.66667 2.66671 5.05448 2.66671 8Z" fill="#1752FE"/>
</svg>
