<svg width="25" height="25" viewBox="0 0 25 25" fill="none" xmlns="http://www.w3.org/2000/svg">
<path fill-rule="evenodd" clip-rule="evenodd" d="M24.643 7.68631L17.8242 0.455017C17.588 0.206267 17.2542 0.0012207 16.9117 0.0012207H2.47424C1.09299 0.0012207 0.000488281 1.25123 0.000488281 2.63123V11.3812C0.000488281 12.0712 0.546755 12.5012 1.23676 12.5012H1.24297C1.93422 12.5012 2.50049 12.0712 2.50049 11.3812V3.88123C2.50049 3.19123 3.03424 2.50122 3.72424 2.50122H15.0005V7.63123C15.0005 9.01248 16.093 10.0012 17.4742 10.0012H22.5005V11.3812C22.5005 12.0712 23.0468 12.5012 23.7368 12.5012H23.743C24.4342 12.5012 25.0005 12.0712 25.0005 11.3812V8.54752C25.0005 8.22627 24.8642 7.91881 24.643 7.68631ZM4.97424 18.8812C4.97424 18.1912 4.41424 17.6312 3.72424 17.6312H2.47424V20.1312H3.72424C4.41424 20.1312 4.97424 19.5712 4.97424 18.8812ZM7.46925 18.5487C7.58175 20.7112 5.86174 22.5012 3.72424 22.5012H2.50049V23.8812C2.50049 24.5712 1.93422 25.0012 1.24297 25.0012H1.23676C0.546755 25.0012 0.000488281 24.5712 0.000488281 23.8812V16.3812C0.000488281 15.6912 0.534243 15.0012 1.22424 15.0012H3.51173C5.54298 15.0012 7.363 16.5212 7.46925 18.5487ZM13.7505 18.8812C13.7505 18.1912 13.1642 17.5012 12.4742 17.5012H11.2505V22.5012H12.4742C13.1642 22.5012 13.7505 22.0712 13.7505 21.3812V18.8812ZM16.2505 18.7512V21.2512C16.2505 23.3137 14.563 25.0012 12.5005 25.0012H9.86922C9.25047 25.0012 8.75049 24.5 8.75049 23.8812V16.225C8.75049 15.5487 9.29799 15.0012 9.97424 15.0012H12.5005C14.563 15.0012 16.2505 16.6887 16.2505 18.7512ZM25.0005 16.2837V16.3162C25.0005 17.0062 24.4142 17.5012 23.7242 17.5012H20.0005V20.0012H23.7242C24.4142 20.0012 25.0005 20.5925 25.0005 21.2837V21.3162C25.0005 22.0062 24.4142 22.5012 23.7242 22.5012H20.0005V23.8812C20.0005 24.5712 19.4342 25.0012 18.743 25.0012H18.7368C18.0468 25.0012 17.5005 24.5712 17.5005 23.8812V16.3812C17.5005 15.6912 18.0342 15.0012 18.7242 15.0012H23.7242C24.4142 15.0012 25.0005 15.5925 25.0005 16.2837Z" fill="#CF4D4D"/>
</svg>
